<svg width="40" height="28" viewBox="0 0 40 28" fill="none" xmlns="http://www.w3.org/2000/svg">
    <g filter="url(#filter0_i_2_4)">
    <path d="M38 11.234C35.4035 18.1489 29.4654 27 19.3377 27C9.21008 27 1 21.1797 1 14C1 6.8203 9.21008 1 19.3377 1C35.4035 1 22.7456 12.617 38 11.234Z" fill="#3688B6"/>
    </g>
    <path d="M38.4681 11.4098L38.7481 10.6642L37.9549 10.7361C34.1715 11.0791 32.2611 10.5975 31.2052 9.81643C30.1566 9.04088 29.839 7.89947 29.4553 6.50316C29.0828 5.14755 28.6514 3.58603 27.202 2.40584C25.7591 1.23088 23.3982 0.5 19.3377 0.5C14.1825 0.5 9.49428 1.98055 6.08183 4.39971C2.67055 6.81804 0.5 10.2051 0.5 14C0.5 17.7949 2.67055 21.182 6.08183 23.6003C9.49428 26.0194 14.1825 27.5 19.3377 27.5C29.7999 27.5 35.856 18.3662 38.4681 11.4098Z" stroke="black"/>
    <g style="mix-blend-mode:darken">
    <path d="M12.9361 22.4129C12.3596 22.4129 11.9468 22.3067 11.6975 22.0943C11.4483 21.8686 11.3236 21.4504 11.3236 20.8397C11.3236 20.4281 11.3704 19.9302 11.4639 19.346C11.5573 18.7619 11.7209 17.879 11.9546 16.6974C11.9858 16.538 12.1104 15.8941 12.3285 14.7656C12.5466 13.6238 12.7413 12.4289 12.9127 11.1809C13.0685 10.1188 13.1464 9.32222 13.1464 8.79116C13.1464 8.19371 12.8893 7.89498 12.3752 7.89498C11.9858 7.89498 11.495 8.07422 10.903 8.43269C10.3266 8.77788 9.70344 9.3355 9.03354 10.1055C8.81544 10.3578 8.57396 10.4839 8.30912 10.4839C8.09102 10.4839 7.89628 10.3976 7.72491 10.225C7.56912 10.0392 7.49123 9.83337 7.49123 9.60767C7.49123 9.38196 7.53796 9.16954 7.63144 8.97039C7.72491 8.75796 7.89628 8.50571 8.14554 8.21362C8.90891 7.32409 9.75796 6.64035 10.6927 6.16239C11.6274 5.67115 12.6089 5.42554 13.6371 5.42554C14.494 5.42554 15.1327 5.65124 15.5533 6.10264C15.9895 6.55405 16.2076 7.21124 16.2076 8.07422C16.2076 8.84426 16.083 9.9595 15.8338 11.4199C16.6127 9.45498 17.602 7.96801 18.8015 6.95898C20.0011 5.93669 21.411 5.42554 23.0312 5.42554C24.3087 5.42554 25.2668 5.73754 25.9055 6.36154C26.5599 6.97226 26.887 7.79541 26.887 8.83098C26.887 9.41515 26.7858 10.1255 26.5832 10.9619L25.1578 16.6575C25.002 17.3214 24.9241 17.8923 24.9241 18.3702C24.9241 18.9278 25.0721 19.346 25.3681 19.6249C25.6796 19.9037 26.1081 20.0431 26.6533 20.0431C27.1674 20.0431 27.666 19.897 28.1489 19.6049C28.6474 19.3129 29.2316 18.8283 29.9015 18.1512C30.0885 17.9653 30.2988 17.8723 30.5325 17.8723C30.735 17.8723 30.8908 17.952 30.9999 18.1113C31.1245 18.2706 31.1868 18.4897 31.1868 18.7685C31.1868 19.2863 31.0388 19.6979 30.7428 20.0032C29.9327 20.8397 29.1304 21.4504 28.3359 21.8354C27.5413 22.2204 26.7079 22.4129 25.8354 22.4129C24.5112 22.4129 23.4752 22.081 22.7274 21.4172C21.9796 20.7401 21.6058 19.8373 21.6058 18.7088C21.6058 18.2706 21.6447 17.7927 21.7226 17.2749C21.8161 16.7571 21.9641 16.0999 22.1666 15.3033L23.1013 11.6589C23.1325 11.5394 23.187 11.327 23.2649 11.0216C23.3428 10.7163 23.4051 10.4308 23.4519 10.1653C23.4986 9.88647 23.522 9.6143 23.522 9.34877C23.522 8.92392 23.3818 8.58537 23.1013 8.33311C22.8209 8.08086 22.4236 7.95473 21.9095 7.95473C20.9748 7.95473 20.0401 8.37958 19.1053 9.22928C18.1706 10.079 17.306 11.4531 16.5114 13.3517C15.7169 15.2369 15.0938 17.6533 14.642 20.6007C14.5329 21.2778 14.3693 21.7491 14.1512 22.0146C13.9487 22.2802 13.5436 22.4129 12.9361 22.4129Z" fill="#631687"/>
    </g>
    <defs>
    <filter id="filter0_i_2_4" x="0" y="0" width="39.4961" height="32" filterUnits="userSpaceOnUse" color-interpolation-filters="sRGB">
    <feFlood flood-opacity="0" result="BackgroundImageFix"/>
    <feBlend mode="normal" in="SourceGraphic" in2="BackgroundImageFix" result="shape"/>
    <feColorMatrix in="SourceAlpha" type="matrix" values="0 0 0 0 0 0 0 0 0 0 0 0 0 0 0 0 0 0 127 0" result="hardAlpha"/>
    <feOffset dy="4"/>
    <feGaussianBlur stdDeviation="2"/>
    <feComposite in2="hardAlpha" operator="arithmetic" k2="-1" k3="1"/>
    <feColorMatrix type="matrix" values="0 0 0 0 0 0 0 0 0 0 0 0 0 0 0 0 0 0 0.25 0"/>
    <feBlend mode="normal" in2="shape" result="effect1_innerShadow_2_4"/>
    </filter>
    </defs>
    </svg>